<svg width="145" height="142" viewBox="0 0 145 142" fill="none" xmlns="http://www.w3.org/2000/svg">
<g filter="url(#filter0_d)">
<path fill-rule="evenodd" clip-rule="evenodd" d="M50 27.8778V54.8126L70.9841 66.8306L94.6777 52.8181V25.8834" fill="#FF9271"/>
</g>
<path d="M70.9841 39.8959V66.8306L94.6777 52.8181V25.8834L70.9841 39.8959Z" fill="#DF5C34"/>
<path d="M50 27.8778L74.3469 14L94.6777 25.8834L70.9841 39.8959L50 27.8778Z" fill="#F47B56"/>
<path fill-rule="evenodd" clip-rule="evenodd" d="M78.645 21.747C76.4744 20.5584 74.0098 20.0155 71.5414 20.1822C68.9515 20.2278 66.4212 20.9675 64.2136 22.3241C63.0558 22.9833 62.1347 23.9908 61.581 25.2036C61.1193 26.2537 61.1193 27.4497 61.581 28.4999C62.14 29.6911 63.0707 30.6679 64.2328 31.2831C65.6727 32.0971 67.2601 32.616 68.9023 32.8095C70.7091 33.0596 72.5437 33.0271 74.3405 32.7133C75.9893 32.4624 77.5733 31.8917 79.0037 31.033C79.5001 30.7295 79.9619 30.3726 80.3808 29.9685C80.6986 29.6671 80.9821 29.3316 81.2263 28.968C81.3955 28.6983 81.533 28.4099 81.6363 28.1087C81.708 27.9208 81.7658 27.7279 81.8092 27.5315C81.8131 27.4589 81.8131 27.3861 81.8092 27.3135L79.4328 27.1788L79.3432 27.5828C79.2142 27.9898 78.9952 28.3624 78.7026 28.673C78.2652 29.1809 77.7481 29.6141 77.1717 29.9556C75.5058 30.9435 73.599 31.4496 71.6631 31.4178C69.7186 31.5 67.7895 31.0405 66.0904 30.0903C64.5339 29.1733 63.7332 28.0317 63.7332 26.7491C63.7204 25.4409 64.4698 24.3143 65.9815 23.3695C67.6426 22.3564 69.5453 21.8093 71.4901 21.7854C73.3253 21.6646 75.1567 22.0718 76.7682 22.959C78.2841 23.8568 78.6001 24.5815 77.7162 25.133C77.0683 25.4819 76.2887 25.4819 75.6408 25.133L71.4709 22.6768L69.671 23.7991L70.3115 24.1839H69.9592C69.6143 24.2031 69.2727 24.2612 68.9408 24.3571C68.5246 24.4652 68.1272 24.636 67.7622 24.8637C66.9865 25.232 66.489 26.0115 66.4811 26.871C66.5195 27.6662 67.032 28.3588 68.0312 28.9488C69.0879 29.5561 70.2914 29.8601 71.5093 29.8274C72.6865 29.8505 73.8468 29.544 74.8594 28.9424C75.2938 28.6962 75.656 28.3402 75.9099 27.9099C76.0624 27.6785 76.1508 27.4107 76.1661 27.1339C76.1519 27.017 76.1217 26.9027 76.0764 26.794L76.5632 26.8325C77.0092 26.8456 77.4549 26.8003 77.8891 26.6978C78.4175 26.591 78.9228 26.3913 79.3816 26.1078C80.3488 25.5242 80.7588 24.8316 80.6627 24.0364C80.5666 23.2412 79.8876 22.478 78.645 21.747ZM73.0723 25.8128C73.4879 25.9933 73.7876 26.3678 73.8729 26.8133H73.8986C73.9052 27.2232 73.6689 27.5982 73.2965 27.7688C72.8045 28.0597 72.2407 28.2064 71.6695 28.1921C71.0752 28.2058 70.4884 28.0573 69.972 27.7624C69.5615 27.5823 69.2749 27.2004 69.2162 26.7555C69.2259 26.3283 69.473 25.9423 69.8568 25.7551C70.3241 25.4751 70.8626 25.3369 71.4069 25.3575C71.9926 25.3583 72.5675 25.5154 73.0723 25.8128Z" fill="#3E2928"/>
<defs>
<filter id="filter0_d" x="0" y="0.883362" width="144.678" height="140.947" filterUnits="userSpaceOnUse" color-interpolation-filters="sRGB">
<feFlood flood-opacity="0" result="BackgroundImageFix"/>
<feColorMatrix in="SourceAlpha" type="matrix" values="0 0 0 0 0 0 0 0 0 0 0 0 0 0 0 0 0 0 127 0" result="hardAlpha"/>
<feOffset dy="25"/>
<feGaussianBlur stdDeviation="25"/>
<feColorMatrix type="matrix" values="0 0 0 0 0.209139 0 0 0 0 0.0691446 0 0 0 0 0.478091 0 0 0 0.497159 0"/>
<feBlend mode="normal" in2="BackgroundImageFix" result="effect1_dropShadow"/>
<feBlend mode="normal" in="SourceGraphic" in2="effect1_dropShadow" result="shape"/>
</filter>
</defs>
</svg>
